<?xml version="1.0" encoding="utf-8"?>
<!-- Generator: Adobe Illustrator 17.1.0, SVG Export Plug-In . SVG Version: 6.00 Build 0)  -->
<!DOCTYPE svg PUBLIC "-//W3C//DTD SVG 1.1//EN" "http://www.w3.org/Graphics/SVG/1.1/DTD/svg11.dtd">
<svg version="1.1" id="Layer_1" xmlns="http://www.w3.org/2000/svg" xmlns:xlink="http://www.w3.org/1999/xlink" x="0px" y="0px"
	 viewBox="0 0 971.2 588.3" enable-background="new 0 0 971.2 588.3" xml:space="preserve">
<rect x="23.9" y="0" fill="#28282D" width="947.2" height="588.3"/>
<rect x="0" y="27.1" fill="#E0E0E0" width="941.4" height="99.2"/>
<g>
	<g id="close">
		<g>
			<circle fill="#D92E2B" cx="20.3" cy="47.5" r="6.2"/>
		</g>
	</g>
	<g id="minimize">
		<g>
			<circle fill="#D8D94B" cx="43.3" cy="47.5" r="6.2"/>
		</g>
	</g>
	<g id="expand">
		<g>
			<circle fill="#78C36E" cx="64.5" cy="47.5" r="6.2"/>
		</g>
	</g>
	<g id="address_bar">
		<g>
			<path fill="#FFFFFF" d="M926,73.1H104.3c-2.9,0-5.3,2.4-5.3,5.3v23c0,2.9,2.4,5.3,5.3,5.3H926c2.9,0,5.3-2.4,5.3-5.3v-23
				C931.3,75.5,928.9,73.1,926,73.1z"/>
		</g>
	</g>
	<g id="back__x26__forward_btns">
		<g>
			<path fill="#F4F4F4" d="M77.8,73.1H49.5v33.6h28.3c2.9,0,5.3-2.4,5.3-5.3v-23C83.1,75.5,80.7,73.1,77.8,73.1z M14.1,78.4v23
				c0,2.9,2.4,5.3,5.3,5.3h26.5V73.1H19.4C16.5,73.1,14.1,75.5,14.1,78.4z"/>
		</g>
	</g>
	<g id="arrow_forward">
		<g>
			<polygon fill="#C7C6C6" points="60.1,83.7 60.1,97.8 60.1,97.8 72.5,90.7 			"/>
		</g>
	</g>
	<g id="arrow_back">
		<g>
			<polygon fill="#C7C6C6" points="23,90.7 35.3,97.8 35.3,97.8 35.3,83.7 			"/>
		</g>
	</g>
</g>
<rect x="0" y="126.6" fill="#404047" width="941.4" height="461.7"/>
<rect x="108.4" y="82" fill="none" width="104.7" height="18.8"/>
<text transform="matrix(1 0 0 1 108.4453 97.1994)" fill="#6D6E71" font-family="'OpenSans'" font-size="20">localhost://</text>
<rect x="2.3" y="149" fill="none" width="43.2" height="420.5"/>
<text transform="matrix(1 0 0 1 34.7589 162.7108)"><tspan x="0" y="0" fill="#FFFFFF" font-family="'DroidSansMono'" font-size="18">1</tspan><tspan x="0" y="27" fill="#FFFFFF" font-family="'DroidSansMono'" font-size="18">2</tspan><tspan x="0" y="54" fill="#FFFFFF" font-family="'DroidSansMono'" font-size="18">3</tspan><tspan x="0" y="81" fill="#FFFFFF" font-family="'DroidSansMono'" font-size="18">4</tspan><tspan x="0" y="108" fill="#FFFFFF" font-family="'DroidSansMono'" font-size="18">5</tspan><tspan x="0" y="135" fill="#FFFFFF" font-family="'DroidSansMono'" font-size="18">6</tspan><tspan x="0" y="162" fill="#FFFFFF" font-family="'DroidSansMono'" font-size="18">7</tspan><tspan x="0" y="189" fill="#FFFFFF" font-family="'DroidSansMono'" font-size="18">8</tspan><tspan x="0" y="216" fill="#FFFFFF" font-family="'DroidSansMono'" font-size="18">9</tspan><tspan x="-10.8" y="243" fill="#FFFFFF" font-family="'DroidSansMono'" font-size="18">10</tspan><tspan x="-10.8" y="270" fill="#FFFFFF" font-family="'DroidSansMono'" font-size="18">11</tspan><tspan x="-10.8" y="297" fill="#FFFFFF" font-family="'DroidSansMono'" font-size="18">12</tspan><tspan x="-10.8" y="324" fill="#FFFFFF" font-family="'DroidSansMono'" font-size="18">13</tspan><tspan x="-10.8" y="351" fill="#FFFFFF" font-family="'DroidSansMono'" font-size="18">14</tspan><tspan x="-10.8" y="378" fill="#FFFFFF" font-family="'DroidSansMono'" font-size="18">15</tspan><tspan x="-10.8" y="405" fill="#FFFFFF" font-family="'DroidSansMono'" font-size="18">16</tspan></text>
<rect x="66.8" y="148" fill="none" width="844.3" height="425.2"/>
<text transform="matrix(1 0 0 1 66.8346 163.9413)"><tspan x="0" y="0" fill="#D8DDE2" font-family="'DroidSansMono'" font-size="21">&lt;!DOCTYPE html&gt;</tspan><tspan x="0" y="27" fill="#D8DDE2" font-family="'DroidSansMono'" font-size="21">&lt;html lang=”en”&gt;</tspan><tspan x="0" y="54" fill="#D8DDE2" font-family="'DroidSansMono'" font-size="21">&lt;head&gt;</tspan><tspan x="0" y="81" fill="#D8DDE2" font-family="'DroidSansMono'" font-size="21" letter-spacing="27">	</tspan><tspan x="39.8" y="81" fill="#D8DDE2" font-family="'DroidSansMono'" font-size="21">&lt;meta charset=”UTF-8”&gt;</tspan><tspan x="0" y="108" fill="#D8DDE2" font-family="'DroidSansMono'" font-size="21" letter-spacing="27">	</tspan><tspan x="39.8" y="108" fill="#D8DDE2" font-family="'DroidSansMono'" font-size="21">&lt;meta name=”viewport” content=”width=device-width” /&gt;</tspan><tspan x="0" y="135" fill="#D8DDE2" font-family="'DroidSansMono'" font-size="21" letter-spacing="27">	</tspan><tspan x="39.8" y="135" fill="#D8DDE2" font-family="'DroidSansMono'" font-size="21">&lt;title&gt;</tspan><tspan x="128" y="135" fill="#1FAD94" font-family="'DroidSansMono'" font-size="21">Zach Green Codes</tspan><tspan x="329.7" y="135" fill="#D8DDE2" font-family="'DroidSansMono'" font-size="21">&lt;/title&gt;</tspan><tspan x="0" y="162" fill="#D8DDE2" font-family="'DroidSansMono'" font-size="21" letter-spacing="27">	</tspan><tspan x="39.8" y="162" fill="#D8DDE2" font-family="'DroidSansMono'" font-size="21">&lt;link rel=”stylesheet” href=”main.css”&gt;</tspan><tspan x="0" y="189" fill="#D8DDE2" font-family="'DroidSansMono'" font-size="21">&lt;/head&gt;</tspan><tspan x="0" y="216" fill="#D8DDE2" font-family="'DroidSansMono'" font-size="21">&lt;body&gt;</tspan><tspan x="0" y="243" fill="#D8DDE2" font-family="'DroidSansMono'" font-size="21" letter-spacing="27">	</tspan><tspan x="39.8" y="243" fill="#D8DDE2" font-family="'DroidSansMono'" font-size="21">&lt;header&gt;</tspan><tspan x="0" y="378" fill="#D8DDE2" font-family="'DroidSansMono'" font-size="21" letter-spacing="27">	</tspan><tspan x="39.8" y="378" fill="#D8DDE2" font-family="'DroidSansMono'" font-size="21">&lt;/header&gt;</tspan><tspan x="0" y="405" fill="#D8DDE2" font-family="'DroidSansMono'" font-size="21" letter-spacing="27">	</tspan><tspan x="39.8" y="405" fill="#D8DDE2" font-family="'DroidSansMono'" font-size="21">&lt;section class=”about”&gt;</tspan></text>
</svg>
