<?xml version="1.0" encoding="utf-8"?>
<!-- Generator: Adobe Illustrator 17.1.0, SVG Export Plug-In . SVG Version: 6.00 Build 0)  -->
<!DOCTYPE svg PUBLIC "-//W3C//DTD SVG 1.1//EN" "http://www.w3.org/Graphics/SVG/1.1/DTD/svg11.dtd">
<svg version="1.1" id="Layer_1" xmlns="http://www.w3.org/2000/svg" xmlns:xlink="http://www.w3.org/1999/xlink" x="0px" y="0px"
	 viewBox="0 0 502.5 487.5" enable-background="new 0 0 502.5 487.5" xml:space="preserve">
<g>
	<g>
		<g>
			<path fill="#FFFFFF" d="M388,400.3V390c0-1.4-0.1-2.4-0.4-3s-0.7-0.8-1.3-0.8c-0.8,0-1.5,0.4-1.9,1.2s-0.6,2.2-0.6,4.1v8.9h-2.4
				V390c0-2.5-0.6-3.8-1.8-3.8c-0.8,0-1.4,0.4-1.8,1.2c-0.4,0.8-0.5,2.3-0.5,4.7v8.3h-2.4v-16.1h1.9l0.4,2.2h0.1
				c0.7-1.6,1.6-2.5,2.9-2.5c1.6,0,2.6,0.9,3.1,2.7h0.1c0.7-1.8,1.8-2.7,3.2-2.7c1.2,0,2.2,0.5,2.7,1.4s0.8,2.4,0.8,4.5v10.5H388z"
				/>
			<path fill="#FFFFFF" d="M392.9,384.2h2.8l3.8,9.6c0.8,2,1.2,3.4,1.3,4.2h0.1c0.2-1.1,0.7-2.5,1.3-4.3l3.5-9.6h2.8l-7,18.2
				c-0.7,1.7-1.4,3-2.3,3.8c-0.9,0.9-2.1,1.3-3.6,1.3c-0.8,0-1.7-0.1-2.5-0.2v-2.1c0.6,0.1,1.3,0.2,2,0.2c0.9,0,1.7-0.2,2.2-0.6
				s1-1.1,1.4-2.1l0.8-2.2L392.9,384.2z"/>
			<path fill="#FFFFFF" d="M412.7,399.6v-2.4c1.9,0.8,3.7,1.3,5.4,1.3c2.7,0,4-0.8,4-2.4c0-0.6-0.2-1-0.7-1.5s-1.6-0.9-3.3-1.6
				c-2.3-0.8-3.7-1.6-4.3-2.3s-0.9-1.5-0.9-2.5c0-1.3,0.5-2.4,1.6-3.1c1.1-0.8,2.6-1.1,4.5-1.1c1.9,0,3.7,0.4,5.4,1.1l-0.9,2.2
				c-1.8-0.7-3.3-1.1-4.7-1.1c-2.3,0-3.5,0.6-3.5,1.9c0,0.6,0.2,1.1,0.7,1.4c0.5,0.4,1.6,0.9,3.4,1.5c2.1,0.8,3.4,1.5,4.1,2.2
				s1,1.6,1,2.7c0,1.5-0.6,2.6-1.7,3.5c-1.1,0.8-2.8,1.3-4.8,1.3C415.8,400.6,413.9,400.3,412.7,399.6z"/>
			<path fill="#FFFFFF" d="M440.7,386.4h0.1l0.4-2.2h2.2v23.3h-2.7v-6.9c0-0.4,0.1-1.2,0.2-2.5h-0.2c-1.1,1.6-2.7,2.4-4.7,2.4
				c-2,0-3.5-0.7-4.6-2.2s-1.7-3.5-1.7-6.1c0-2.6,0.6-4.7,1.7-6.2s2.7-2.2,4.6-2.2C438,383.9,439.6,384.8,440.7,386.4z M440.7,392.9
				v-0.6c0-2.2-0.3-3.8-1-4.7c-0.7-0.9-1.8-1.4-3.2-1.4c-2.7,0-4,2.1-4,6.2c0,4,1.3,6.1,4,6.1c1.5,0,2.6-0.4,3.2-1.3
				C440.4,396.2,440.7,394.8,440.7,392.9z"/>
			<path fill="#FFFFFF" d="M453.5,379.6l-3.9-0.3v-1.8h6.6v20.7l5.2,0.3v1.8h-12.9v-1.8l5-0.3V379.6z"/>
		</g>
	</g>
	
		<polygon fill="none" stroke="#F7971F" stroke-width="4" stroke-linecap="round" stroke-linejoin="round" stroke-miterlimit="10" points="
		492,433.7 418.2,476.3 344.5,433.7 344.5,348.6 418.2,306 492,348.6 	"/>
	<g>
		<g>
			<path fill="#FFFFFF" d="M62.2,399.3H62c0.1,1.3,0.2,2.1,0.2,2.4v6.9h-2.7v-23.3h2.2l0.4,2.2h0.1c1.1-1.6,2.6-2.5,4.7-2.5
				c2,0,3.5,0.7,4.6,2.2c1.1,1.5,1.7,3.5,1.7,6.1c0,2.6-0.6,4.7-1.7,6.2c-1.1,1.5-2.7,2.2-4.6,2.2C64.9,401.7,63.3,400.9,62.2,399.3
				z M62.2,392.7v0.6c0,2.2,0.3,3.8,1,4.7s1.8,1.4,3.2,1.4c2.7,0,4-2.1,4-6.2c0-4-1.3-6.1-4-6.1c-1.5,0-2.6,0.4-3.2,1.3
				S62.3,390.7,62.2,392.7z"/>
			<path fill="#FFFFFF" d="M88.2,401.4V391c0-2.5-1.2-3.8-3.5-3.8c-3,0-4.5,1.9-4.5,5.8v8.3h-2.7v-22.8h2.7v6.8l-0.1,2.1h0.1
				c1-1.6,2.6-2.5,4.9-2.5c3.8,0,5.7,2,5.7,5.9v10.5H88.2z"/>
			<path fill="#FFFFFF" d="M98.2,399.3H98c0.1,1.3,0.2,2.1,0.2,2.4v6.9h-2.7v-23.3h2.2l0.4,2.2h0.1c1.1-1.6,2.6-2.5,4.7-2.5
				c2,0,3.5,0.7,4.6,2.2c1.1,1.5,1.7,3.5,1.7,6.1c0,2.6-0.6,4.7-1.7,6.2c-1.1,1.5-2.7,2.2-4.6,2.2
				C100.9,401.7,99.3,400.9,98.2,399.3z M98.2,392.7v0.6c0,2.2,0.3,3.8,1,4.7s1.8,1.4,3.2,1.4c2.7,0,4-2.1,4-6.2c0-4-1.3-6.1-4-6.1
				c-1.5,0-2.6,0.4-3.2,1.3S98.3,390.7,98.2,392.7z"/>
		</g>
	</g>
	
		<polygon fill="none" stroke="#6181BA" stroke-width="4" stroke-linecap="round" stroke-linejoin="round" stroke-miterlimit="10" points="
		158,433.7 84.2,476.3 10.5,433.7 10.5,348.6 84.2,306 158,348.6 	"/>
	<g>
		<g>
			<path fill="#FFFFFF" d="M230.7,385.6l-0.7,2.4c-1.2-0.4-2.3-0.7-3.3-0.7c-1.6,0-2.8,0.5-3.7,1.4s-1.3,2.2-1.3,3.9v8.7h-2.7v-16.1
				h2.2l0.3,2.9h0.1c0.7-1.2,1.5-2,2.4-2.5s1.9-0.7,3.1-0.7C228.4,385,229.5,385.2,230.7,385.6z"/>
			<path fill="#FFFFFF" d="M246.7,401.4l-0.4-2.2h-0.1c-1,1.6-2.7,2.4-4.9,2.4c-3.8,0-5.7-2-5.7-5.9v-10.5h2.7v10.4
				c0,2.5,1.2,3.8,3.5,3.8c1.6,0,2.7-0.5,3.4-1.4s1.1-2.4,1.1-4.5v-8.3h2.7v16.1H246.7z"/>
			<path fill="#FFFFFF" d="M256.2,399.3H256l-0.5,2h-1.9v-22.8h2.7v5.5c0,0.8,0,1.9-0.1,3.3h0.1c1-1.6,2.6-2.4,4.7-2.4
				c2,0,3.5,0.7,4.6,2.2c1.1,1.5,1.7,3.5,1.7,6.1c0,2.6-0.6,4.7-1.7,6.2c-1.1,1.5-2.7,2.2-4.6,2.2
				C258.9,401.7,257.3,400.9,256.2,399.3z M256.2,393.3c0,2.2,0.3,3.8,1,4.7s1.8,1.4,3.2,1.4c2.7,0,4-2.1,4-6.2c0-4-1.3-6.1-4-6.1
				c-1.5,0-2.6,0.5-3.3,1.4S256.2,391.1,256.2,393.3z"/>
			<path fill="#FFFFFF" d="M270.4,385.3h2.8l3.8,9.6c0.8,2,1.2,3.4,1.3,4.2h0.1c0.2-1.1,0.7-2.5,1.3-4.3l3.5-9.6h2.8l-7,18.2
				c-0.7,1.7-1.4,3-2.3,3.8c-0.9,0.9-2.1,1.3-3.6,1.3c-0.8,0-1.7-0.1-2.5-0.2v-2.1c0.6,0.1,1.3,0.2,2,0.2c0.9,0,1.7-0.2,2.2-0.6
				s1-1.1,1.4-2.1l0.8-2.2L270.4,385.3z"/>
		</g>
	</g>
	
		<polygon fill="none" stroke="#ED313A" stroke-width="4" stroke-linecap="round" stroke-linejoin="round" stroke-miterlimit="10" points="
		325,433.7 251.2,476.3 177.5,433.7 177.5,348.6 251.2,306 325,348.6 	"/>
	<g>
		<g>
			<path fill="#FFFFFF" d="M235.2,110.8v-2.3c1.3,0.4,2.7,0.6,4.2,0.6c1.1,0,2-0.3,2.7-0.8s1-1.3,1-2.3V90.1l-6.2-0.3V88h8.8v17.8
				c0,1.8-0.6,3.1-1.7,4.1c-1.1,1-2.7,1.4-4.7,1.4C237.8,111.3,236.4,111.2,235.2,110.8z M244.1,81.4c1,0,1.6,0.6,1.6,1.7
				c0,1.1-0.5,1.7-1.6,1.7c-1,0-1.6-0.6-1.6-1.7C242.6,82,243.1,81.4,244.1,81.4z"/>
			<path fill="#FFFFFF" d="M254.2,103.4V101c1.9,0.8,3.7,1.3,5.4,1.3c2.7,0,4-0.8,4-2.4c0-0.6-0.2-1-0.7-1.5s-1.6-0.9-3.3-1.6
				c-2.3-0.8-3.7-1.6-4.3-2.3s-0.9-1.5-0.9-2.5c0-1.3,0.5-2.4,1.6-3.1c1.1-0.8,2.6-1.1,4.5-1.1c1.9,0,3.7,0.4,5.4,1.1l-0.9,2.2
				c-1.8-0.7-3.3-1.1-4.7-1.1c-2.3,0-3.5,0.6-3.5,1.9c0,0.6,0.2,1.1,0.7,1.4c0.5,0.4,1.6,0.9,3.4,1.5c2.1,0.8,3.4,1.5,4.1,2.2
				s1,1.6,1,2.7c0,1.5-0.6,2.6-1.7,3.5c-1.1,0.8-2.8,1.3-4.8,1.3C257.3,104.4,255.4,104.1,254.2,103.4z"/>
		</g>
	</g>
	
		<polygon fill="none" stroke="#E8C01E" stroke-width="4" stroke-linecap="round" stroke-linejoin="round" stroke-miterlimit="10" points="
		325,138.9 251.2,181.5 177.5,138.9 177.5,53.8 251.2,11.2 325,53.8 	"/>
	<g>
		<g>
			<path fill="#FFFFFF" d="M143.7,253.3v-10.4c0-2.5-1.2-3.8-3.5-3.8c-3,0-4.5,1.9-4.5,5.8v8.3h-2.7v-22.8h2.7v6.8l-0.1,2.1h0.1
				c1-1.6,2.6-2.5,4.9-2.5c3.8,0,5.7,2,5.7,5.9v10.5H143.7z"/>
			<path fill="#FFFFFF" d="M163.7,251.1v2c-1.3,0.3-2.5,0.5-3.7,0.5c-3.5,0-5.3-1.7-5.3-5v-9.3h-3.9v-1.4l3.9-0.7l1.1-4.2h1.5v4.3
				h6.4v2h-6.4v9.3c0,1.9,0.9,2.9,2.8,2.9C161.1,251.4,162.3,251.3,163.7,251.1z"/>
			<path fill="#FFFFFF" d="M181.1,253.3v-10.4c0-1.4-0.1-2.4-0.4-3s-0.7-0.8-1.3-0.8c-0.8,0-1.5,0.4-1.9,1.2s-0.6,2.2-0.6,4.1v8.9
				h-2.4v-10.4c0-2.5-0.6-3.8-1.8-3.8c-0.8,0-1.4,0.4-1.8,1.2c-0.4,0.8-0.5,2.3-0.5,4.7v8.3h-2.4v-16.1h1.9l0.4,2.2h0.1
				c0.7-1.6,1.6-2.5,2.9-2.5c1.6,0,2.6,0.9,3.1,2.7h0.1c0.7-1.8,1.8-2.7,3.2-2.7c1.2,0,2.2,0.5,2.7,1.4s0.8,2.4,0.8,4.5v10.5H181.1z
				"/>
			<path fill="#FFFFFF" d="M192.5,232.6l-3.9-0.3v-1.8h6.6v20.7l5.2,0.3v1.8h-12.9v-1.8l5-0.3V232.6z"/>
		</g>
	</g>
	<g>
		<g>
			<path fill="#FFFFFF" d="M325.3,237.8l-0.9,2.3c-1.5-0.6-2.8-0.8-3.9-0.8c-3.6,0-5.4,2-5.4,6c0,4,1.8,5.9,5.3,5.9
				c1.5,0,3.1-0.3,4.7-0.9v2.3c-1.3,0.6-2.9,0.9-4.8,0.9c-2.5,0-4.5-0.7-5.8-2.1c-1.4-1.4-2.1-3.5-2.1-6.1c0-2.7,0.7-4.8,2.1-6.3
				s3.4-2.2,6-2.2C322.1,236.9,323.7,237.2,325.3,237.8z"/>
			<path fill="#FFFFFF" d="M330.7,252.6v-2.4c1.9,0.8,3.7,1.3,5.4,1.3c2.7,0,4-0.8,4-2.4c0-0.6-0.2-1-0.7-1.5s-1.6-0.9-3.3-1.6
				c-2.3-0.8-3.7-1.6-4.3-2.3s-0.9-1.5-0.9-2.5c0-1.3,0.5-2.4,1.6-3.1c1.1-0.8,2.6-1.1,4.5-1.1c1.9,0,3.7,0.4,5.4,1.1l-0.9,2.2
				c-1.8-0.7-3.3-1.1-4.7-1.1c-2.3,0-3.5,0.6-3.5,1.9c0,0.6,0.2,1.1,0.7,1.4c0.5,0.4,1.6,0.9,3.4,1.5c2.1,0.8,3.4,1.5,4.1,2.2
				s1,1.6,1,2.7c0,1.5-0.6,2.6-1.7,3.5c-1.1,0.8-2.8,1.3-4.8,1.3C333.8,253.6,331.9,253.2,330.7,252.6z"/>
			<path fill="#FFFFFF" d="M348.7,252.6v-2.4c1.9,0.8,3.7,1.3,5.4,1.3c2.7,0,4-0.8,4-2.4c0-0.6-0.2-1-0.7-1.5s-1.6-0.9-3.3-1.6
				c-2.3-0.8-3.7-1.6-4.3-2.3s-0.9-1.5-0.9-2.5c0-1.3,0.5-2.4,1.6-3.1c1.1-0.8,2.6-1.1,4.5-1.1c1.9,0,3.7,0.4,5.4,1.1l-0.9,2.2
				c-1.8-0.7-3.3-1.1-4.7-1.1c-2.3,0-3.5,0.6-3.5,1.9c0,0.6,0.2,1.1,0.7,1.4c0.5,0.4,1.6,0.9,3.4,1.5c2.1,0.8,3.4,1.5,4.1,2.2
				s1,1.6,1,2.7c0,1.5-0.6,2.6-1.7,3.5c-1.1,0.8-2.8,1.3-4.8,1.3C351.8,253.6,349.9,253.2,348.7,252.6z"/>
		</g>
	</g>
	
		<polygon fill="none" stroke="#27A8DD" stroke-width="4" stroke-linecap="round" stroke-linejoin="round" stroke-miterlimit="10" points="
		410.5,286.9 336.7,329.5 263,286.9 263,201.8 336.7,159.2 410.5,201.8 	"/>
	
		<polygon fill="none" stroke="#F06628" stroke-width="4" stroke-linecap="round" stroke-linejoin="round" stroke-miterlimit="10" points="
		240.5,286.9 166.7,329.5 93,286.9 93,201.8 166.7,159.2 240.5,201.8 	"/>
</g>
</svg>
